<?xml version="1.0" encoding="UTF-8"?>
<svg id="Layer_1" xmlns="http://www.w3.org/2000/svg" version="1.1" viewBox="0 0 33.17 50.2">
  <!-- Generator: Adobe Illustrator 30.2.1, SVG Export Plug-In . SVG Version: 2.1.1 Build 1)  -->
  <defs>
    <style>
      .st0 {
        fill: #f15a2d;
      }
    </style>
  </defs>
  <path class="st0" d="M26.66,29.52c-.66-.43-1.32-.85-1.91-1.35-.41-.34-.66-.85-.75-1.52,0-.02,6.29.03,6.85-.03.38-.04.77-.1,1.12-.27.92-.44,1.2-1.59,1.2-2.52,0-1.29-.81-2.23-2.07-2.44-.58-.09-7.15-.14-7.15-.04l-.05-7.7c0-.53-.1-1.04-.3-1.52-.2-.48-.62-.72-1.28-.72-.5,0-.95.16-1.36.48-.4.32-.77.65-1.1.99l-5.86,6.02c-.33.33-.57.71-.72,1.14-.15.43-.26.87-.31,1.32h-5.79l8.34-7.6c.74-.67,1.48-1.44,2.21-2.3s1.34-1.79,1.84-2.78.74-2.01.74-3.06c0-1.88-.57-3.28-1.69-4.2-4.48-3.66-13.78.17-10.94,6.62.29.65.57,1.28.85,1.9s.43,1.28.43,1.96c0,.48-.16,1.04-.48,1.67s-.7,1.22-1.14,1.78-.85.99-1.23,1.28c-.67.52-1.36,1.02-2.07,1.5-.71.48-1.4.98-2.07,1.5-.53.41-1,.99-1.4,1.72-.37.73-.57,1.44-.57,2.13,0,.86.22,1.61.67,2.23.45.63,1.15.94,2.09.94h10.15c-.07.81-.34,1.36-.8,1.65-.47.29-.99.52-1.58.68s-1.09.44-1.53.83c-.43.39-.65,1.09-.65,2.11,0,1.91.93,2.87,2.79,2.87h6.55c1.11.07,2.02.33,2.65.87.72.62,1.22,1.43,1.49,2.43s.4,2.09.4,3.26c0,.71-.05,1.43-.15,2.18-.39,2.85-4.58,3.84-5.32.65-.6-2.57.44-5.21-2.29-6.95-1.8-1.15-4.34-1-5.98.36-1.93,1.59-2.6,4.39-2,6.76.67,2.63,3.09,4.07,5.53,4.84,5.15,1.63,11.75,1.37,16.48-1.4,1.42-.83,2.55-1.95,3.4-3.36.84-1.4,1.27-3.14,1.27-5.21,0-2.61-.91-4.88-2.74-6.75-.87-.88-1.86-1.64-2.87-2.35-.29-.2-.59-.4-.9-.6Z"/>
</svg>